<?xml version="1.0" encoding="UTF-8" standalone="no"?><!DOCTYPE svg PUBLIC "-//W3C//DTD SVG 1.1//EN" "http://www.w3.org/Graphics/SVG/1.1/DTD/svg11.dtd"><svg x="0" y="0" viewBox="0 0 800 500" version="1.1" xmlns="http://www.w3.org/2000/svg" xmlns:xlink="http://www.w3.org/1999/xlink" fill="currentColor" stroke="currentColor" class="icon-svg"><g><use stroke-width="0" fill-opacity="1" stroke-opacity="1" transform="matrix(0.37460659341591196,-0.9271838545667874,0.9271838545667874,0.37460659341591196,234.9612867599011,374.7665078841176) scale(0.75,0.75)" xlink:href="#f2_843" x="-48.095703125" y="155.23046875"/></g><g><use stroke-width="0"  fill-opacity="1" stroke-opacity="1" transform="matrix(1,0,0,1,78.69921409564922,350.8174942517626) scale(0.75,0.75)" xlink:href="#f5_207" x="-102.05078125" y="155.23046875"/></g><g><use stroke-width="0"  fill-opacity="1" stroke-opacity="1" transform="matrix(1,0,0,1,740.264712534657,362.49974407828165) scale(0.613,0.613)" xlink:href="#f2_132" x="-57.373046875" y="154.7867493372757"/></g><g><use stroke-width="0"  fill-opacity="1" stroke-opacity="1" transform="matrix(1,0,0,1,697.5946527679465,383.29776554193825) scale(0.613,0.613)" xlink:href="#f2_579" x="-53.466796875" y="154.7867493372757"/></g><g><use stroke-width="0"  fill-opacity="1" stroke-opacity="1" transform="matrix(1,0,0,1,556.5910271518932,394.6428848443793) scale(0.613,0.613)" xlink:href="#f2_712" x="-208.984375" y="154.7867493372757"/></g><g><use stroke-width="0"  fill-opacity="1" stroke-opacity="1" transform="matrix(1,0,0,1,294.03255186682867,397.8843475022196) scale(0.613,0.613)" xlink:href="#f2_220" x="-93.75" y="154.7867493372757"/></g><g><use stroke-width="0"  fill-opacity="1" stroke-opacity="1" transform="matrix(1,0,0,1,225.72812426579708,397.2530997799686) scale(0.613,0.613)" xlink:href="#f2_1093" x="-45.8984375" y="154.7867493372757"/></g><g><use stroke-width="0"  fill-opacity="1" stroke-opacity="1" transform="matrix(1,0,0,1,386.4142376152774,391.4014221865391) scale(0.613,0.613)" xlink:href="#f2_722" x="-97.16796875" y="154.7867493372757"/></g><g><use stroke-width="0"  fill-opacity="1" stroke-opacity="1" transform="matrix(1,0,0,1,168.96759331736152,563.4027107553829) scale(0.75,0.75)" xlink:href="#f2_107" x="-48.583984375" y="155.23046875"/></g><g><use stroke-width="0"  fill-opacity="1" stroke-opacity="1" transform="matrix(1,0,0,1,288.0805489464607,431.89183965918176) scale(0.75,0.75)" xlink:href="#f2_103" x="-40.0390625" y="155.23046875"/></g><g><use stroke-width="0"  fill-opacity="1" stroke-opacity="1" transform="matrix(1,0,0,1,86.83331682197979,355.7789082242749) scale(0.75,0.75)" xlink:href="#f2_105" x="-75.1953125" y="155.23046875"/></g><g><use stroke-width="0"  fill-opacity="1" stroke-opacity="1" transform="matrix(1,0,0,1,576.2267260711232,390.4610275326821) scale(0.75,0.75)" xlink:href="#f2_837" x="-65.91796875" y="155.23046875"/></g><g><use stroke-width="0"  fill-opacity="1" stroke-opacity="1" transform="matrix(1,0,0,1,213.9366587274873,393.6960704805988) scale(0.75,0.75)" xlink:href="#f2_837" x="-65.91796875" y="155.23046875"/></g><g><use stroke-width="0"  fill-opacity="1" stroke-opacity="1" transform="matrix(1,0,0,1,661.273162531574,391.2892481919006) scale(0.75,0.75)" xlink:href="#f2_842" x="-31.982421875" y="155.23046875"/></g><g><use stroke-width="0"  fill-opacity="1" stroke-opacity="1" transform="matrix(1,0,0,1,463.51110018808316,457.94891435396846) scale(0.75,0.75)" xlink:href="#f2_841" x="-25.390625" y="155.23046875"/></g><g><use stroke-width="0"  fill-opacity="1" stroke-opacity="1" transform="matrix(1,0,0,1,533.4318947425979,464.1787964295896) scale(0.613,0.613)" xlink:href="#f2_895" x="-172.36328125" y="154.7867493372757"/></g><g><use stroke-width="0"  fill-opacity="1" stroke-opacity="1" transform="matrix(1,0,0,1,399.14698296848235,320.37771282339736) scale(0.613,0.613)" xlink:href="#f2_841" x="-25.390625" y="154.7867493372757"/></g><g><use stroke-width="0"  fill-opacity="1" stroke-opacity="1" transform="matrix(-1,1.2246467991473532e-16,-1.2246467991473532e-16,-1,355.98232596517994,298.4826341518982) scale(0.613,0.613)" xlink:href="#f2_841" x="-25.390625" y="154.7867493372757"/></g><g><use stroke-width="0"  fill-opacity="1" stroke-opacity="1" transform="matrix(1,0,0,1,286.9372221404217,161.88241820683237) scale(0.613,0.613)" xlink:href="#f4_115" x="-93" y="490.81566068515497"/></g><g><use stroke-width="0"  fill-opacity="1" stroke-opacity="1" transform="matrix(-1,1.2246467991473532e-16,-1.2246467991473532e-16,-1,157.09454336909405,19.45808590471472) scale(0.613,0.613)" xlink:href="#f2_841" x="-25.390625" y="154.7867493372757"/></g><g><use stroke-width="0"  fill-opacity="1" stroke-opacity="1" transform="matrix(1,0,0,1,647.0957195020118,223.08957705650607) scale(0.613,0.613)" xlink:href="#f2_844" x="-70.3125" y="154.7867493372757"/></g><g><use stroke-width="0"  fill-opacity="1" stroke-opacity="1" transform="matrix(-1,1.2246467991473532e-16,-1.2246467991473532e-16,-1,375.19379221062485,19.504331768710472) scale(0.613,0.613)" xlink:href="#f2_841" x="-25.390625" y="154.7867493372757"/></g><g><use stroke-width="0"  fill-opacity="1" stroke-opacity="1" transform="matrix(1,0,0,1,80.37647959661709,1.8788906439847324) scale(0.75,0.75)" xlink:href="#f4_29" x="-81.5" y="491.3333333333333"/></g><g><use stroke-width="0"  fill-opacity="1" stroke-opacity="1" transform="matrix(1,0,0,1,195.00653608267675,224.22783958766382) scale(0.75,0.75)" xlink:href="#f4_75" x="-66.5" y="491.3333333333333"/></g><g><use stroke-width="0"  fill-opacity="1" stroke-opacity="1" transform="matrix(1,0,0,1,197.6469217873961,171.52507213702103) scale(0.613,0.613)" xlink:href="#f4_3" x="-25" y="490.81566068515497"/></g><g><use stroke-width="0"  fill-opacity="1" stroke-opacity="1" transform="matrix(1,0,0,1,502.1502291177277,360.42078710536623) scale(0.75,0.75)" xlink:href="#f4_3" x="-25" y="491.3333333333333"/></g><g><use stroke-width="0"  fill-opacity="1" stroke-opacity="1" transform="matrix(1,0,0,1,283.98753141165946,282.83442142307086) scale(0.613,0.613)" xlink:href="#f4_3" x="-25" y="490.81566068515497"/></g><g><use stroke-width="0"  fill-opacity="1" stroke-opacity="1" transform="matrix(1,0,0,1,434.69660806523393,231.45793098685544) scale(0.613,0.613)" xlink:href="#f4_3" x="-25" y="490.81566068515497"/></g><g><use stroke-width="0"  fill-opacity="1" stroke-opacity="1" transform="matrix(-1,1.2246467991473532e-16,-1.2246467991473532e-16,-1,584.6169638264997,19.690810101556394) scale(0.613,0.613)" xlink:href="#f2_841" x="-25.390625" y="154.7867493372757"/></g><g><use stroke-width="0"  fill-opacity="1" stroke-opacity="1" transform="matrix(-1,1.2246467991473532e-16,-1.2246467991473532e-16,-1,234.8748287715473,17.869081236832358) scale(0.613,0.613)" xlink:href="#f2_841" x="-25.390625" y="154.7867493372757"/></g><g><use stroke-width="0"  fill-opacity="1" stroke-opacity="1" transform="matrix(1,0,0,1,537.7756749207546,265.8529625270464) scale(0.41,0.41)" xlink:href="#f4_17" x="-296.5" y="492.4390243902439"/></g><g><use stroke-width="0"  fill-opacity="1" stroke-opacity="1" transform="matrix(1,0,0,1,466.95156144557717,161.19432739802858) scale(0.613,0.613)" xlink:href="#f4_123" x="-135" y="490.81566068515497"/></g><g><use stroke-width="0"  fill-opacity="1" stroke-opacity="1" transform="matrix(1,0,0,1,416.92138422595036,422.71015018764194) scale(0.613,0.613)" xlink:href="#f2_841" x="-25.390625" y="154.7867493372757"/></g><g><use stroke-width="0"  fill-opacity="1" stroke-opacity="1" transform="matrix(1,0,0,1,331.70042040519064,354.3410904499184) scale(0.75,0.75)" xlink:href="#f2_842" x="-31.982421875" y="155.23046875"/></g><g><use stroke-width="0"  fill-opacity="1" stroke-opacity="1" transform="matrix(0.981627183447664,0.1908089953765447,-0.1908089953765447,0.981627183447664,232.02968114033564,504.6371207167542) scale(0.613,0.613)" xlink:href="#f2_841" x="-25.390625" y="154.7867493372757"/></g><g><use stroke-width="0"  fill-opacity="1" stroke-opacity="1" transform="matrix(-0.5446390350150271,-0.8386705679454239,0.8386705679454239,-0.5446390350150271,665.1302542644783,343.0144518700471) scale(0.613,0.613)" xlink:href="#f2_841" x="-25.390625" y="154.7867493372757"/></g><g><use stroke-width="0"  fill-opacity="1" stroke-opacity="1" transform="matrix(1,0,0,1,471.7799413985673,210.20793098685544) scale(0.613,0.613)" xlink:href="#f4_3" x="-25" y="490.81566068515497"/></g><g><use stroke-width="0"  fill-opacity="1" stroke-opacity="1" transform="matrix(-1,1.2246467991473532e-16,-1.2246467991473532e-16,-1,549.7818623720082,46.492578222714315) scale(0.613,0.613)" xlink:href="#f2_841" x="-25.390625" y="154.7867493372757"/></g><defs><path d="M26.86-329.59L77.64-299.80L53.22-255.86L2.44-285.64L26.86-329.59Z" id="f2_103"/><path d="M97.17-336.91L147.95-307.13L123.54-263.18L73.73-292.48L53.22-255.86L2.44-285.64L26.86-329.59L76.66-300.29L97.17-336.91Z" id="f2_105"/><path d="M53.71-323.73L94.73-299.80L70.31-255.86L19.53-285.64L43.46-329.10L2.44-353.03L26.86-396.97L77.64-367.19L53.71-323.73Z" id="f2_107"/><path d="M112.30-92.29L112.30-92.29Q112.30-70.31 107.42-47.36L107.42-47.36Q99.12-4.88 93.26-4.88L93.26-4.88Q89.84-4.88 88.87-22.46L88.87-22.46Q86.43-60.06 86.43-64.45L86.43-64.45Q77.15-156.25 39.55-372.56L39.55-372.56Q28.81-432.62 11.23-552.25L11.23-552.25Q2.44-560.06 3.91-563.96L3.91-563.96Q7.81-574.71 16.11-595.70L16.11-595.70Q22.95-613.28 24.41-613.28L24.41-613.28Q27.34-613.28 53.71-556.64L53.71-556.64Q83.01-493.65 79.10-490.72L79.10-490.72Q75.20-488.28 63.96-500.49L63.96-500.49Q60.55-504.39 46.88-518.07L46.88-518.07Q63.96-427.73 96.68-230.47L96.68-230.47Q112.30-127.44 112.30-92.29Z" id="f2_132"/><path d="M178.22-64.45L178.22-64.45Q185.06-64.45 185.06-50.78L185.06-50.78Q185.06-15.63 166.50-15.63L166.50-15.63Q115.72-16.60 89.84-32.23L89.84-32.23Q50.29-4.88 9.28-4.88L9.28-4.88Q2.44-4.88 2.44-18.55L2.44-18.55Q2.44-53.71 21.00-53.71L21.00-53.71Q44.43-53.71 60.06-61.52L60.06-61.52Q51.76-80.57 51.76-103.52L51.76-103.52Q51.76-140.63 81.05-178.71L81.05-178.71Q107.91-213.87 127.44-213.87L127.44-213.87Q139.16-213.87 150.39-187.99L150.39-187.99Q160.16-165.53 160.16-151.86L160.16-151.86Q160.16-105.47 134.77-69.34L134.77-69.34Q153.81-63.96 178.22-64.45ZM140.14-112.30L140.14-112.30Q140.14-125 130.86-143.07L130.86-143.07Q121.09-163.09 111.82-163.09L111.82-163.09Q102.54-163.09 87.65-146.97Q72.75-130.86 72.75-121.58L72.75-121.58Q72.75-103.52 102.05-83.98L102.05-83.98Q140.14-105.96 140.14-112.30Z" id="f2_220"/><path d="M104.49-136.72L104.49-136.72Q104.49-64.94 72.75-31.74L72.75-31.74Q52.73-9.77 13.67-4.88L13.67-4.88L13.67-50.78Q29.79-53.71 52.73-62.01L52.73-62.01Q79.59-71.78 79.59-78.61L79.59-78.61Q79.59-110.84 39.55-340.82L39.55-340.82Q29.79-400.88 12.70-521.00L12.70-521.00Q2.44-528.81 4.88-531.74L4.88-531.74Q8.79-542.97 16.60-563.96L16.60-563.96Q23.44-582.03 25.88-582.03L25.88-582.03Q29.79-582.03 54.69-524.90L54.69-524.90Q79.59-466.80 79.59-460.94L79.59-460.94Q79.59-458.98 79.59-458.98L79.59-458.98Q76.66-457.03 64.45-468.75L64.45-468.75Q60.55-472.66 47.85-486.82L47.85-486.82Q104.49-153.81 104.49-136.72Z" id="f2_579"/><path d="M408.69-70.80L408.69-70.80Q415.53-70.80 415.53-58.11L415.53-58.11Q415.53-22.95 396.48-22.95L396.48-22.95Q376.46-22.95 366.70-32.71L366.70-32.71Q360.35-40.04 350.59-61.04L350.59-61.04Q331.54-16.11 292.48-16.11L292.48-16.11Q276.37-16.11 266.36-29.05Q256.35-41.99 258.30-58.11L258.30-58.11Q227.54-4.88 179.69-4.88L179.69-4.88Q131.35-4.88 131.35-62.01L131.35-62.01Q72.27-7.81 9.28-7.81L9.28-7.81Q2.44-7.81 2.44-21.97L2.44-21.97Q2.44-56.64 21.48-56.64L21.48-56.64Q81.54-56.64 134.28-101.07L134.28-101.07Q151.37-114.75 153.32-113.77L153.32-113.77Q156.25-112.79 155.27-105.96L155.27-105.96Q153.32-93.75 153.32-86.91L153.32-86.91Q157.71-51.76 189.45-51.76L189.45-51.76Q221.68-51.76 244.63-73.73L244.63-73.73Q253.42-83.01 268.55-104.00L268.55-104.00Q277.34-118.65 282.71-117.68L282.71-117.68Q285.64-116.70 282.71-107.91L282.71-107.91Q278.32-94.73 278.32-90.82L278.32-90.82Q278.32-65.92 309.57-64.94L309.57-64.94Q332.52-63.96 341.31-77.64L341.31-77.64Q348.63-90.82 354.49-104.98L354.49-104.98Q365.72-124.02 370.61-122.07L370.61-122.07Q371.58-121.09 370.61-106.93L370.61-106.93Q369.63-88.87 384.28-79.10L384.28-79.10Q394.53-71.78 408.69-70.80Z" id="f2_712"/><path d="M185.06-53.71L185.06-53.71Q191.89-53.71 191.89-40.04L191.89-40.04Q191.89-4.88 173.34-4.88L173.34-4.88Q120.61-4.88 103.03-77.64L103.03-77.64Q99.61-58.59 90.82-46.39L90.82-46.39Q61.04-4.88 9.28-4.88L9.28-4.88Q2.44-4.88 2.44-18.55L2.44-18.55Q2.44-53.71 21.00-53.71L21.00-53.71Q44.92-53.71 65.92-65.43L65.92-65.43Q90.33-79.10 88.87-98.63L88.87-98.63Q84.47-163.09 53.22-341.31L53.22-341.31Q38.57-429.20 15.63-564.94L15.63-564.94Q15.14-568.85 23.44-597.41Q31.74-625.98 33.69-625.98L33.69-625.98Q37.11-625.98 81.54-370.61L81.54-370.61Q104.00-239.75 112.79-175.29L112.79-175.29Q123.05-103.03 140.63-76.17L140.63-76.17Q155.76-53.71 185.06-53.71Z" id="f2_722"/><path d="M129.39-296.88L129.39-296.88Q129.39-279.30 122.56-270.02L122.56-270.02Q109.38-255.86 89.36-268.07L89.36-268.07Q81.54-271.97 78.61-280.27L78.61-280.27Q75.20-286.13 72.27-281.25L72.27-281.25Q61.52-256.84 43.46-256.84L43.46-256.84Q35.16-256.84 28.32-262.21L28.32-262.21Q19.53-269.04 15.63-280.27L15.63-280.27Q8.30-302.25 10.25-332.03L10.25-332.03Q2.44-331.05 2.44-335.94L2.44-335.94Q2.44-338.87 8.30-349.85Q14.16-360.84 15.63-360.84L15.63-360.84Q25.39-360.84 24.41-335.94L24.41-335.94Q23.44-309.08 26.86-295.17Q30.27-281.25 44.43-281.25L44.43-281.25Q53.22-281.25 61.77-289.06Q70.31-296.88 69.34-309.08L69.34-309.08Q66.41-337.89 64.45-342.53Q62.50-347.17 63.48-352.05L63.48-352.05Q64.45-354.98 66.41-363.28L66.41-363.28Q68.36-369.14 72.27-364.26L72.27-364.26Q75.20-358.89 78.61-349.12L78.61-349.12Q81.54-335.94 81.54-316.89L81.54-316.89Q82.52-303.22 88.38-294.92L88.38-294.92Q99.61-283.20 111.33-288.09L111.33-288.09Q115.23-290.04 115.23-293.95L115.23-293.95Q115.23-301.27 98.63-338.87L98.63-338.87Q96.19-343.26 96.19-349.12L96.19-349.12Q96.19-351.07 97.17-352.05L97.17-352.05Q101.56-369.14 104.49-369.14L104.49-369.14Q107.42-369.14 108.40-358.89L108.40-358.89Q108.40-354.00 119.63-330.08L119.63-330.08Q129.39-309.08 129.39-296.88Z" id="f2_837"/><path d="M45.41-298.83L45.41-298.83Q48.34-298.83 46.39-284.67L46.39-284.67Q44.43-271.97 41.50-266.60L41.50-266.60Q35.64-257.81 26.37-256.84L26.37-256.84Q18.55-255.86 14.65-261.72L14.65-261.72Q2.44-278.81 4.39-309.57L4.39-309.57Q6.35-327.64 19.53-380.86L19.53-380.86Q21.48-387.70 24.41-391.60L24.41-391.60Q31.74-402.83 31.74-395.02L31.74-395.02Q31.74-391.60 28.32-382.81L28.32-382.81Q15.63-333.01 15.63-307.62L15.63-307.62Q15.63-290.04 20.51-283.69L20.51-283.69Q23.44-279.79 27.34-279.79L27.34-279.79Q37.60-279.79 41.50-293.95L41.50-293.95Q42.48-298.83 45.41-298.83Z" id="f2_841"/><path d="M61.52-187.01L61.52-187.01Q61.52-151.37 39.55-151.37L39.55-151.37Q31.74-151.37 24.41-163.09L24.41-163.09Q15.63-176.27 15.63-194.34L15.63-194.34Q15.63-227.05 29.79-263.18L29.79-263.18Q34.67-278.32 34.67-299.32L34.67-299.32Q34.67-347.17 6.35-378.42L6.35-378.42Q2.44-382.32 2.44-385.25L2.44-385.25Q2.44-388.18 6.10-399.66Q9.77-411.13 11.72-411.13L11.72-411.13Q14.65-411.13 21.48-399.41L21.48-399.41Q46.39-354.98 46.39-306.15L46.39-306.15Q46.39-278.32 41.50-263.18L41.50-263.18Q26.37-226.07 26.37-199.22L26.37-199.22Q26.37-175.29 40.53-175.29L40.53-175.29Q54.69-175.29 54.69-194.34L54.69-194.34Q54.69-202.15 58.59-202.15L58.59-202.15Q61.52-202.15 61.52-187.01Z" id="f2_842"/><path d="M85.45-198.24L85.45-198.24Q72.75-151.37 43.46-151.37L43.46-151.37Q27.34-151.37 19.53-163.09L19.53-163.09Q2.44-190.43 2.44-221.19L2.44-221.19Q2.44-243.16 10.74-282.23L10.74-282.23Q19.53-330.08 42.48-390.14L42.48-390.14Q51.76-412.11 56.64-412.11L56.64-412.11Q58.59-411.13 58.59-407.23L58.59-407.23Q58.59-400.39 53.71-386.23L53.71-386.23Q43.46-357.42 25.39-277.34L25.39-277.34Q17.58-232.42 29.79-209.47L29.79-209.47Q37.60-193.36 52.73-193.36L52.73-193.36Q61.52-193.36 67.38-200.20L67.38-200.20Q71.78-205.08 78.61-216.31L78.61-216.31Q82.52-225.10 84.47-225.10L84.47-225.10Q93.75-225.10 85.45-198.24Z" id="f2_843"/><path d="M135.25-372.07L135.25-372.07Q138.18-369.14 135.25-356.93L135.25-356.93Q133.30-345.21 129.39-345.21L129.39-345.21Q129.39-345.21 123.29-353.03Q117.19-360.84 110.35-360.84L110.35-360.84Q96.19-360.84 90.33-308.35Q84.47-255.86 79.59-256.84L79.59-256.84Q73.24-256.84 66.41-279.79L66.41-279.79Q58.59-309.08 39.55-325.20L39.55-325.20Q38.57-322.75 36.62-320.80L36.62-320.80Q33.20-319.82 19.78-327.39Q6.35-334.96 5.37-340.82L5.37-340.82Q2.44-368.16 15.63-368.16L15.63-368.16Q39.55-369.14 66.41-316.89L66.41-316.89Q70.31-306.15 77.64-291.99L77.64-291.99Q80.57-316.89 85.45-341.80L85.45-341.80Q93.26-388.18 110.35-387.21L110.35-387.21Q123.54-387.21 135.25-372.07Z" id="f2_844"/><path d="M342.29-360.35L342.29-360.35Q342.29-327.15 317.38-327.15L317.38-327.15Q307.62-327.15 300.29-333.01L300.29-333.01Q296.39-335.94 293.46-331.05L293.46-331.05Q281.25-312.99 259.28-312.99L259.28-312.99Q250.49-312.99 244.63-317.38L244.63-317.38Q224.61-329.10 195.31-315.92L195.31-315.92Q182.62-309.08 151.37-282.23L151.37-282.23Q133.30-266.11 116.70-250.98L116.70-250.98Q87.40-229.00 48.34-213.38L48.34-213.38Q16.60-200.20 5.37-200.20L5.37-200.20Q2.44-200.20 2.44-202.15L2.44-202.15Q5.37-205.08 13.67-208.01L13.67-208.01Q28.32-213.38 54.69-226.07L54.69-226.07Q102.54-252.93 138.67-290.04L138.67-290.04Q168.46-323.24 202.64-340.33L202.64-340.33Q226.56-353.03 243.65-342.29L243.65-342.29Q251.46-335.94 260.25-335.94L260.25-335.94Q285.64-335.94 294.43-360.35L294.43-360.35Q299.32-375 306.64-375L306.64-375Q308.59-375 307.62-370.12L307.62-370.12Q304.69-359.38 306.64-356.93L306.64-356.93Q313.48-348.14 326.66-352.05L326.66-352.05Q335.45-354.00 328.61-360.35L328.61-360.35Q323.24-363.28 326.66-369.14L326.66-369.14Q332.52-383.30 334.47-383.30L334.47-383.30Q342.29-383.30 342.29-360.35Z" id="f2_895"/><path d="M39.55-201.66L62.50-211.91Q23.44-156.74 23.44-104.98L23.44-104.98Q23.44-83.01 40.28-67.87Q57.13-52.73 82.52-52.73L82.52-52.73Q89.36-52.73 89.36-40.04L89.36-40.04Q89.36-4.88 70.31-3.91L70.31-3.91Q2.44-4.88 2.44-83.01L2.44-83.01Q2.44-137.70 39.55-201.66L39.55-201.66Z" id="f2_1093"/><path d="M191.89-264.65L191.89-264.65Q197.27-264.65 179.69-215.33L179.69-215.33Q173.83-200.20 135.74-150.39L135.74-150.39Q176.27-116.21 176.27-83.50L176.27-83.50Q176.27-36.13 158.20-13.67L158.20-13.67Q146.00 0.98 121.34 14.65Q96.68 28.32 82.52 28.32L82.52 28.32Q49.32 28.32 49.32-22.95L49.32-22.95Q49.32-75.20 94.24-134.77L94.24-134.77Q86.43-141.11 45.41-200.20L45.41-200.20Q39.55-202.15 39.06-206.05L39.06-206.05Q38.09-212.40 39.06-231.45L39.06-231.45Q40.04-251.95 42.97-253.91L42.97-253.91Q44.43-254.88 63.96-240.72L63.96-240.72Q109.86-208.01 106.93-204.10L106.93-204.10Q104.00-199.22 82.52-205.08L82.52-205.08Q90.82-190.92 118.65-165.04L118.65-165.04Q151.37-204.59 174.80-239.26L174.80-239.26Q191.89-264.65 191.89-264.65ZM160.64-62.50L160.64-62.50Q160.64-74.71 109.86-119.63L109.86-119.63Q67.87-69.82 67.87-47.85L67.87-47.85Q67.87-24.41 89.36-24.41L89.36-24.41Q109.86-24.41 136.72-41.02L136.72-41.02Q160.64-56.15 160.64-62.50Z" id="f5_207"/><path d="M47-536L47-536Q50-536 48-522L48-522Q46-509 43-504L43-504Q37-495 28-494L28-494Q20-493 16-499L16-499Q4-516 6-547L6-547Q8-565 21-618L21-618Q23-625 26-629L26-629Q33-640 33-632L33-632Q33-629 30-620L30-620Q17-570 17-545L17-545Q17-527 22-521L22-521Q25-517 29-517L29-517Q39-517 43-531L43-531Q44-536 47-536Z" id="f4_3"/><path d="M590-732L590-732Q590-729 583.50-714Q577-699 573-698L573-698Q394-638 289-601L289-601Q90-531 4-493L4-493Q4-503 11.50-515Q19-527 25-530L25-530Q271-633 590-732Z" id="f4_17"/><path d="M157-317L157-317Q157-286 139-286L139-286Q123-286 101-294L101-294Q66-270 17-235L17-235Q4-226 32-226L32-226Q54-226 86.50-239Q119-252 124-265L124-265Q125-268 127-269L127-269Q130-270 130-266L130-266Q130-256 117-241L117-241Q84-203 23-203L23-203Q1-203 1-216L1-216Q1-241 15-255L15-255Q35-274 84-301L84-301Q68-309 68-322L68-322Q68-328 71.50-342Q75-356 74-358L74-358Q73-364 73-366L73-366Q73-385 85-385L85-385Q100-385 126-363L126-363Q157-339 157-317ZM147-312L147-312Q147-315 135-327.50Q123-340 120-340L120-340Q114-340 114-320L114-320Q114-317 129-313L129-313Q147-308 147-312ZM108-330L108-330Q108-347 86-347L86-347Q77-347 77-336L77-336Q77-320 100-320L100-320Q108-320 108-330Z" id="f4_29"/><path d="M131-556L131-556Q132-556 124-543.50Q116-531 111-527L111-527Q83-515 39-493L39-493Q3-473 2-474L2-474Q-1-477 9-489L9-489Q18-500 27.50-507.50Q37-515 80.50-535.50Q124-556 131-556Z" id="f4_75"/><path d="M154-624L154-624L159-624Q167-622 173-618L173-618Q182-611 183-605L183-605L183-602Q183-599 182.50-596.50Q182-594 181-590L181-590Q180-588 179-585Q178-582 176-582L176-582Q174-582 172-587L172-587Q170-590 165.50-594.50Q161-599 155-598L155-598Q150-597 147.50-591Q145-585 143-580L143-580Q139-567 138-554.50Q137-542 135-528L135-528Q134-522 133-515Q132-508 130-503L130-503Q127-494 121.50-486.50Q116-479 109-473L109-473Q102-466 94-461Q86-456 78-451L78-451Q61-440 43.50-433.50Q26-427 4-420L4-420Q27-440 55-455.50Q83-471 106-491L106-491Q109-494 112.50-496.50Q116-499 118-503L118-503Q114-511 112-519.50Q110-528 106-536L106-536Q98-551 86-562L86-562Q84-560 84-559Q84-558 82-558L82-558Q80-558 77-559Q74-560 72-561L72-561Q68-564 64-565L64-565Q61-567 57-570Q53-573 52-577L52-577Q50-581 50.50-585.50Q51-590 51-593L51-593Q54-608 70-604L70-604Q81-601 89-591Q97-581 102-572L102-572Q105-567 108.50-562Q112-557 114-551L114-551Q116-546 118-540Q120-534 124-529L124-529Q126-542 128-555.50Q130-569 132-583L132-583Q134-589 135.50-595.50Q137-602 139-607L139-607Q141-612 144.50-617Q148-622 154-624Z" id="f4_115"/><path d="M221-608L221-608Q223-613 226.50-618.50Q230-624 236-625L236-625L240-625Q246-624 251-621Q256-618 260-614L260-614Q262-612 263.50-610Q265-608 265-605L265-605L265-604Q263-596 263-592L263-592Q262-590 261-586Q260-582 258-583L258-583Q257-583 255.50-585Q254-587 253-588L253-588Q252-590 251-590.50Q250-591 249-593L249-593Q247-595 244-597.50Q241-600 237-599L237-599Q231-597 229-591L229-591Q224-583 222-570.50Q220-558 218-547L218-547Q217-541 216.50-534.50Q216-528 215-522L215-522Q214-514 212.50-507Q211-500 208-495L208-495L206-495Q203-497 200.50-502Q198-507 196-512L196-512Q194-517 192.50-522Q191-527 189-532L189-532Q182-549 170-560L170-560Q167-563 167-563L167-563Q166-563 165.50-561Q165-559 163-559L163-559Q161-559 158.50-560Q156-561 154-562L154-562Q152-564 150-564.50Q148-565 146-566L146-566Q143-568 139-571Q135-574 133-578L133-578Q132-581 132.50-584.50Q133-588 133-591L133-591Q122-576 109.50-563.50Q97-551 80-542L80-542Q64-532 46.50-523.50Q29-515 9-510L9-510L9-511Q41-531 72.50-552.50Q104-574 132-600L132-600Q134-602 136-603.50Q138-605 140-606L140-606Q144-607 148-606Q152-605 155-603L155-603Q165-598 172-589.50Q179-581 185-571L185-571Q192-561 196-551L196-551Q199-542 204-532L204-532L204-531Q204-530 205-531L205-531Q207-544 209.50-557Q212-570 214-584L214-584Q216-599 221-608Z" id="f4_123"/></defs></svg>
