<?xml version="1.0" encoding="UTF-8" standalone="no"?><!DOCTYPE svg PUBLIC "-//W3C//DTD SVG 1.1//EN" "http://www.w3.org/Graphics/SVG/1.1/DTD/svg11.dtd"><svg x="0" y="0" viewBox="0 0 1200 1200" width="1200" height="1200" version="1.1" xmlns="http://www.w3.org/2000/svg" xmlns:xlink="http://www.w3.org/1999/xlink" fill="currentColor"><g><use stroke-width="0"  fill-opacity="1" stroke-opacity="1" transform="matrix(0.37460659341591196,-0.9271838545667874,0.9271838545667874,0.37460659341591196,299.20568439760297,709.0313060904214) scale(0.95,0.95)" xlink:href="#f3_843" x="-48.095703125" y="154.3883634868421"/></g><g><use  stroke-width="0"  fill-opacity="1" stroke-opacity="1" transform="matrix(1,0,0,1,103.25304527663074,678.9992429954484) scale(0.95,0.95)" xlink:href="#f5_207" x="-102.05078125" y="154.3883634868421"/></g><g><use  stroke-width="0"  fill-opacity="1" stroke-opacity="1" transform="matrix(1,0,0,1,1110.749930319147,676.3737842779035) scale(0.95,0.95)" xlink:href="#f3_132" x="-57.373046875" y="154.3883634868421"/></g><g><use  stroke-width="0"  fill-opacity="1" stroke-opacity="1" transform="matrix(1,0,0,1,823.173128849161,697.93128279859) scale(0.95,0.95)" xlink:href="#f3_712" x="-208.984375" y="154.3883634868421"/></g><g><use  stroke-width="0"  fill-opacity="1" stroke-opacity="1" transform="matrix(1,0,0,1,402.9725461092964,703.1806260250431) scale(0.95,0.95)" xlink:href="#f3_220" x="-93.75" y="154.3883634868421"/></g><g><use  stroke-width="0"  fill-opacity="1" stroke-opacity="1" transform="matrix(1,0,0,1,305.5700676983205,703.838376861981) scale(0.95,0.95)" xlink:href="#f3_1092" x="-47.119140625" y="154.3883634868421"/></g><g><use  stroke-width="0"  fill-opacity="1" stroke-opacity="1" transform="matrix(1,0,0,1,553.5214347702447,693.8664886256585) scale(0.95,0.95)" xlink:href="#f3_722" x="-97.16796875" y="154.3883634868421"/></g><g><use  stroke-width="0"  fill-opacity="1" stroke-opacity="1" transform="matrix(0.9998476951563913,-0.01745240643728177,0.01745240643728177,0.9998476951563913,180.865337457105,619.5652326141687) scale(1.2,1.2)" xlink:href="#f4_114" x="-67" y="490.83333333333337"/></g><g><use  stroke-width="0"  fill-opacity="1" stroke-opacity="1" transform="matrix(1,0,0,1,1032.009343888415,681.6025701740853) scale(0.95,0.95)" xlink:href="#f3_1042" x="-55.908203125" y="154.3883634868421"/></g><g><use  stroke-width="0"  fill-opacity="1" stroke-opacity="1" transform="matrix(1,0,0,1,115.05967246644161,691.2195867356) scale(0.95,0.95)" xlink:href="#f3_107" x="-48.583984375" y="154.3883634868421"/></g><g><use  stroke-width="0"  fill-opacity="1" stroke-opacity="1" transform="matrix(1,0,0,1,120.10000000000001,410.8119140624999) scale(0.95,0.95)" xlink:href="#f3_847" x="-80.56640625" y="154.3883634868421"/></g><g><use  stroke-width="0"  fill-opacity="1" stroke-opacity="1" transform="matrix(1,0,0,1,281.1844901833278,702.3436809402629) scale(0.75,0.75)" xlink:href="#f3_837" x="-65.91796875" y="155.23046875"/></g><g><use  stroke-width="0"  fill-opacity="1" stroke-opacity="1" transform="matrix(1,0,0,1,887.95,682.8369140625) scale(0.95,0.95)" xlink:href="#f3_837" x="-65.91796875" y="154.3883634868421"/></g><g><use  stroke-width="0"  fill-opacity="1" stroke-opacity="1" transform="matrix(1,0,0,1,784.825,823.4619140625) scale(0.95,0.95)" xlink:href="#f3_895" x="-172.36328125" y="154.3883634868421"/></g><g><use  stroke-width="0"  fill-opacity="1" stroke-opacity="1" transform="matrix(0.9925461516413221,-0.121869343405147,0.121869343405147,0.9925461516413221,753.0089037135784,484.06059699991965) scale(0.95,0.95)" xlink:href="#f3_824" x="-203.857421875" y="154.3883634868421"/></g><g><use  stroke-width="0"  fill-opacity="1" stroke-opacity="1" transform="matrix(1,0,0,1,975.45,617.2119140625) scale(0.95,0.95)" xlink:href="#f3_842" x="-31.982421875" y="154.3883634868421"/></g><g><use  stroke-width="0"  fill-opacity="1" stroke-opacity="1" transform="matrix(1,0,0,1,311.09999999999997,383.9) scale(0.95,0.95)" xlink:href="#f4_3" x="-25" y="491.0526315789474"/></g><g><use  stroke-width="0"  fill-opacity="1" stroke-opacity="1" transform="matrix(-1,-1.2246467991473532e-16,1.2246467991473532e-16,-1,236.3,240.14999999999998) scale(0.95,0.95)" xlink:href="#f4_3" x="-25" y="491.0526315789474"/></g><g><use stroke-width="0"  fill-opacity="1" stroke-opacity="1" transform="matrix(1,0,0,1,379.85,366.9999999999999) scale(0.95,0.95)" xlink:href="#f4_115" x="-93" y="491.0526315789474"/></g><g><use  stroke-width="0"  fill-opacity="1" stroke-opacity="1" transform="matrix(1,0,0,1,329.85,783.9000000000001) scale(0.95,0.95)" xlink:href="#f4_3" x="-25" y="491.0526315789474"/></g><g><use  stroke-width="0"  fill-opacity="1" stroke-opacity="1" transform="matrix(-1,-1.2246467991473532e-16,1.2246467991473532e-16,-1,497.95,618.9) scale(0.95,0.95)" xlink:href="#f4_3" x="-25" y="491.0526315789474"/></g><g><use  stroke-width="0"  fill-opacity="1" stroke-opacity="1" transform="matrix(-1,-1.2246467991473532e-16,1.2246467991473532e-16,-1,1007.325,622.025) scale(0.95,0.95)" xlink:href="#f4_3" x="-25" y="491.0526315789474"/></g><g><use  stroke-width="0"  fill-opacity="1" stroke-opacity="1" transform="matrix(1,0,0,1,454.1885843637221,534.4565061823329) scale(0.95,0.95)" xlink:href="#f4_3" x="-25" y="491.0526315789474"/></g><g><use stroke-width="0"  fill-opacity="1" stroke-opacity="1" transform="matrix(1,0,0,1,434.8250000000001,259.58764745292467) scale(0.95,0.95)" xlink:href="#f4_59" x="-40.5" y="491.0526315789474"/></g><g><use stroke-width="0"  fill-opacity="1" stroke-opacity="1" transform="matrix(1,0,0,1,676.5250000000001,367.19999999999993) scale(0.95,0.95)" xlink:href="#f4_2" x="-67.5" y="491.0526315789474"/></g><g><use stroke-width="0"  fill-opacity="1" stroke-opacity="1" transform="matrix(1,0,0,1,649.2750000000001,737.0250000000001) scale(0.95,0.95)" xlink:href="#f4_3" x="-25" y="491.0526315789474"/></g><g><use stroke-width="0"  fill-opacity="1" stroke-opacity="1" transform="matrix(1,0,0,1,712.95,687.025) scale(0.95,0.95)" xlink:href="#f4_3" x="-25" y="491.0526315789474"/></g><g><use stroke-width="0"  fill-opacity="1" stroke-opacity="1" transform="matrix(1,0,0,1,784.825,637.0250000000001) scale(0.95,0.95)" xlink:href="#f4_3" x="-25" y="491.0526315789474"/></g><g><use stroke-width="0"  fill-opacity="1" stroke-opacity="1" transform="matrix(1,0,0,1,649.2885321704715,486.4198994648111) scale(0.95,0.95)" xlink:href="#f4_3" x="-25" y="491.0526315789474"/></g><g><use stroke-width="0"  fill-opacity="1" stroke-opacity="1" transform="matrix(1,0,0,1,579.7730395441038,528.0457841823585) scale(0.95,0.95)" xlink:href="#f4_3" x="-25" y="491.0526315789474"/></g><g><use stroke-width="0"  fill-opacity="1" stroke-opacity="1" transform="matrix(-1,-1.2246467991473532e-16,1.2246467991473532e-16,-1,561.075,241.39999999999998) scale(0.95,0.95)" xlink:href="#f4_3" x="-25" y="491.0526315789474"/></g><g><use stroke-width="0"  fill-opacity="1" stroke-opacity="1" transform="matrix(1,0,0,1,726.3561762735378,445.900294905849) scale(0.95,0.95)" xlink:href="#f4_3" x="-25" y="491.0526315789474"/></g><g><use stroke-width="0"  fill-opacity="1" stroke-opacity="1" transform="matrix(0.9876883405951378,-0.1564344650402306,0.1564344650402306,0.9876883405951378,348.15976570994343,517.0930033896617) scale(0.75,0.75)" xlink:href="#f4_83" x="-128" y="491.3333333333333"/></g><g><use stroke-width="0"  fill-opacity="1" stroke-opacity="1" transform="matrix(-1,-1.2246467991473532e-16,1.2246467991473532e-16,-1,367.27933745488855,505.30981890788985) scale(0.95,0.95)" xlink:href="#f4_3" x="-25" y="491.0526315789474"/></g><g><use stroke-width="0"  fill-opacity="1" stroke-opacity="1" transform="matrix(1,0,0,1,215.625,479.1250000000001) scale(0.95,0.95)" xlink:href="#f4_63" x="-50" y="491.0526315789474"/></g><g><use stroke-width="0"  fill-opacity="1" stroke-opacity="1" transform="matrix(1,0,0,1,878.0500000000002,365.15) scale(0.95,0.95)" xlink:href="#f4_115" x="-93" y="491.0526315789474"/></g><g><use stroke-width="0"  fill-opacity="1" stroke-opacity="1" transform="matrix(1,0,0,1,791.6500000000001,374.525) scale(0.95,0.95)" xlink:href="#f4_3" x="-25" y="491.0526315789474"/></g><defs><path d="M53.71-323.73L94.73-299.80L70.31-255.86L19.53-285.64L43.46-329.10L2.44-353.03L26.86-396.97L77.64-367.19L53.71-323.73Z" id="f3_107"/><path d="M112.30-92.29L112.30-92.29Q112.30-70.31 107.42-47.36L107.42-47.36Q99.12-4.88 93.26-4.88L93.26-4.88Q89.84-4.88 88.87-22.46L88.87-22.46Q86.43-60.06 86.43-64.45L86.43-64.45Q77.15-156.25 39.55-372.56L39.55-372.56Q28.81-432.62 11.23-552.25L11.23-552.25Q2.44-560.06 3.91-563.96L3.91-563.96Q7.81-574.71 16.11-595.70L16.11-595.70Q22.95-613.28 24.41-613.28L24.41-613.28Q27.34-613.28 53.71-556.64L53.71-556.64Q83.01-493.65 79.10-490.72L79.10-490.72Q75.20-488.28 63.96-500.49L63.96-500.49Q60.55-504.39 46.88-518.07L46.88-518.07Q63.96-427.73 96.68-230.47L96.68-230.47Q112.30-127.44 112.30-92.29Z" id="f3_132"/><path d="M178.22-64.45L178.22-64.45Q185.06-64.45 185.06-50.78L185.06-50.78Q185.06-15.63 166.50-15.63L166.50-15.63Q115.72-16.60 89.84-32.23L89.84-32.23Q50.29-4.88 9.28-4.88L9.28-4.88Q2.44-4.88 2.44-18.55L2.44-18.55Q2.44-53.71 21.00-53.71L21.00-53.71Q44.43-53.71 60.06-61.52L60.06-61.52Q51.76-80.57 51.76-103.52L51.76-103.52Q51.76-140.63 81.05-178.71L81.05-178.71Q107.91-213.87 127.44-213.87L127.44-213.87Q139.16-213.87 150.39-187.99L150.39-187.99Q160.16-165.53 160.16-151.86L160.16-151.86Q160.16-105.47 134.77-69.34L134.77-69.34Q153.81-63.96 178.22-64.45ZM140.14-112.30L140.14-112.30Q140.14-125 130.86-143.07L130.86-143.07Q121.09-163.09 111.82-163.09L111.82-163.09Q102.54-163.09 87.65-146.97Q72.75-130.86 72.75-121.58L72.75-121.58Q72.75-103.52 102.05-83.98L102.05-83.98Q140.14-105.96 140.14-112.30Z" id="f3_220"/><path d="M408.69-70.80L408.69-70.80Q415.53-70.80 415.53-58.11L415.53-58.11Q415.53-22.95 396.48-22.95L396.48-22.95Q376.46-22.95 366.70-32.71L366.70-32.71Q360.35-40.04 350.59-61.04L350.59-61.04Q331.54-16.11 292.48-16.11L292.48-16.11Q276.37-16.11 266.36-29.05Q256.35-41.99 258.30-58.11L258.30-58.11Q227.54-4.88 179.69-4.88L179.69-4.88Q131.35-4.88 131.35-62.01L131.35-62.01Q72.27-7.81 9.28-7.81L9.28-7.81Q2.44-7.81 2.44-21.97L2.44-21.97Q2.44-56.64 21.48-56.64L21.48-56.64Q81.54-56.64 134.28-101.07L134.28-101.07Q151.37-114.75 153.32-113.77L153.32-113.77Q156.25-112.79 155.27-105.96L155.27-105.96Q153.32-93.75 153.32-86.91L153.32-86.91Q157.71-51.76 189.45-51.76L189.45-51.76Q221.68-51.76 244.63-73.73L244.63-73.73Q253.42-83.01 268.55-104.00L268.55-104.00Q277.34-118.65 282.71-117.68L282.71-117.68Q285.64-116.70 282.71-107.91L282.71-107.91Q278.32-94.73 278.32-90.82L278.32-90.82Q278.32-65.92 309.57-64.94L309.57-64.94Q332.52-63.96 341.31-77.64L341.31-77.64Q348.63-90.82 354.49-104.98L354.49-104.98Q365.72-124.02 370.61-122.07L370.61-122.07Q371.58-121.09 370.61-106.93L370.61-106.93Q369.63-88.87 384.28-79.10L384.28-79.10Q394.53-71.78 408.69-70.80Z" id="f3_712"/><path d="M185.06-53.71L185.06-53.71Q191.89-53.71 191.89-40.04L191.89-40.04Q191.89-4.88 173.34-4.88L173.34-4.88Q120.61-4.88 103.03-77.64L103.03-77.64Q99.61-58.59 90.82-46.39L90.82-46.39Q61.04-4.88 9.28-4.88L9.28-4.88Q2.44-4.88 2.44-18.55L2.44-18.55Q2.44-53.71 21.00-53.71L21.00-53.71Q44.92-53.71 65.92-65.43L65.92-65.43Q90.33-79.10 88.87-98.63L88.87-98.63Q84.47-163.09 53.22-341.31L53.22-341.31Q38.57-429.20 15.63-564.94L15.63-564.94Q15.14-568.85 23.44-597.41Q31.74-625.98 33.69-625.98L33.69-625.98Q37.11-625.98 81.54-370.61L81.54-370.61Q104.00-239.75 112.79-175.29L112.79-175.29Q123.05-103.03 140.63-76.17L140.63-76.17Q155.76-53.71 185.06-53.71Z" id="f3_722"/><path d="M397.46-227.54L397.46-227.54Q405.27-227.54 390.63-205.57L390.63-205.57Q299.32-172.85 173.34-118.65L173.34-118.65Q34.67-59.57 14.65-44.43L14.65-44.43Q30.27-28.81 52.73-22.46L52.73-22.46Q51.27-4.88 42.48-4.88L42.48-4.88Q34.67-4.88 18.55-16.85Q2.44-28.81 2.44-35.64L2.44-35.64Q2.44-60.55 12.70-67.87L12.70-67.87Q35.64-82.52 210.45-155.76L210.45-155.76Q384.28-227.54 397.46-227.54Z" id="f3_824"/><path d="M129.39-296.88L129.39-296.88Q129.39-279.30 122.56-270.02L122.56-270.02Q109.38-255.86 89.36-268.07L89.36-268.07Q81.54-271.97 78.61-280.27L78.61-280.27Q75.20-286.13 72.27-281.25L72.27-281.25Q61.52-256.84 43.46-256.84L43.46-256.84Q35.16-256.84 28.32-262.21L28.32-262.21Q19.53-269.04 15.63-280.27L15.63-280.27Q8.30-302.25 10.25-332.03L10.25-332.03Q2.44-331.05 2.44-335.94L2.44-335.94Q2.44-338.87 8.30-349.85Q14.16-360.84 15.63-360.84L15.63-360.84Q25.39-360.84 24.41-335.94L24.41-335.94Q23.44-309.08 26.86-295.17Q30.27-281.25 44.43-281.25L44.43-281.25Q53.22-281.25 61.77-289.06Q70.31-296.88 69.34-309.08L69.34-309.08Q66.41-337.89 64.45-342.53Q62.50-347.17 63.48-352.05L63.48-352.05Q64.45-354.98 66.41-363.28L66.41-363.28Q68.36-369.14 72.27-364.26L72.27-364.26Q75.20-358.89 78.61-349.12L78.61-349.12Q81.54-335.94 81.54-316.89L81.54-316.89Q82.52-303.22 88.38-294.92L88.38-294.92Q99.61-283.20 111.33-288.09L111.33-288.09Q115.23-290.04 115.23-293.95L115.23-293.95Q115.23-301.27 98.63-338.87L98.63-338.87Q96.19-343.26 96.19-349.12L96.19-349.12Q96.19-351.07 97.17-352.05L97.17-352.05Q101.56-369.14 104.49-369.14L104.49-369.14Q107.42-369.14 108.40-358.89L108.40-358.89Q108.40-354.00 119.63-330.08L119.63-330.08Q129.39-309.08 129.39-296.88Z" id="f3_837"/><path d="M61.52-187.01L61.52-187.01Q61.52-151.37 39.55-151.37L39.55-151.37Q31.74-151.37 24.41-163.09L24.41-163.09Q15.63-176.27 15.63-194.34L15.63-194.34Q15.63-227.05 29.79-263.18L29.79-263.18Q34.67-278.32 34.67-299.32L34.67-299.32Q34.67-347.17 6.35-378.42L6.35-378.42Q2.44-382.32 2.44-385.25L2.44-385.25Q2.44-388.18 6.10-399.66Q9.77-411.13 11.72-411.13L11.72-411.13Q14.65-411.13 21.48-399.41L21.48-399.41Q46.39-354.98 46.39-306.15L46.39-306.15Q46.39-278.32 41.50-263.18L41.50-263.18Q26.37-226.07 26.37-199.22L26.37-199.22Q26.37-175.29 40.53-175.29L40.53-175.29Q54.69-175.29 54.69-194.34L54.69-194.34Q54.69-202.15 58.59-202.15L58.59-202.15Q61.52-202.15 61.52-187.01Z" id="f3_842"/><path d="M85.45-198.24L85.45-198.24Q72.75-151.37 43.46-151.37L43.46-151.37Q27.34-151.37 19.53-163.09L19.53-163.09Q2.44-190.43 2.44-221.19L2.44-221.19Q2.44-243.16 10.74-282.23L10.74-282.23Q19.53-330.08 42.48-390.14L42.48-390.14Q51.76-412.11 56.64-412.11L56.64-412.11Q58.59-411.13 58.59-407.23L58.59-407.23Q58.59-400.39 53.71-386.23L53.71-386.23Q43.46-357.42 25.39-277.34L25.39-277.34Q17.58-232.42 29.79-209.47L29.79-209.47Q37.60-193.36 52.73-193.36L52.73-193.36Q61.52-193.36 67.38-200.20L67.38-200.20Q71.78-205.08 78.61-216.31L78.61-216.31Q82.52-225.10 84.47-225.10L84.47-225.10Q93.75-225.10 85.45-198.24Z" id="f3_843"/><path d="M158.69-265.14L158.69-265.14Q158.69-234.38 140.63-234.38L140.63-234.38Q124.51-234.38 102.54-242.19L102.54-242.19Q67.38-218.26 18.55-183.59L18.55-183.59Q5.37-174.32 33.69-174.32L33.69-174.32Q55.66-174.32 88.13-187.26Q120.61-200.20 125.49-213.38L125.49-213.38Q126.46-216.31 128.42-217.29L128.42-217.29Q131.35-218.26 131.35-214.36L131.35-214.36Q131.35-204.59 118.65-189.45L118.65-189.45Q85.45-151.37 24.41-151.37L24.41-151.37Q2.44-151.37 2.44-164.55L2.44-164.55Q2.44-189.45 16.60-203.61L16.60-203.61Q36.62-222.17 85.45-249.51L85.45-249.51Q69.34-257.32 69.34-270.51L69.34-270.51Q69.34-276.37 73.00-290.28Q76.66-304.20 75.68-306.15L75.68-306.15Q74.71-312.50 74.71-314.45L74.71-314.45Q74.71-333.50 86.43-333.50L86.43-333.50Q101.56-333.50 127.44-311.52L127.44-311.52Q158.69-287.60 158.69-265.14ZM148.44-260.25L148.44-260.25Q148.44-263.18 136.47-275.88Q124.51-288.57 121.58-288.57L121.58-288.57Q115.23-288.57 115.23-268.55L115.23-268.55Q115.23-265.14 130.37-261.23L130.37-261.23Q148.44-256.35 148.44-260.25ZM109.38-278.32L109.38-278.32Q109.38-295.41 87.40-295.41L87.40-295.41Q78.61-295.41 78.61-284.18L78.61-284.18Q78.61-268.55 101.56-268.55L101.56-268.55Q109.38-268.55 109.38-278.32Z" id="f3_847"/><path d="M342.29-360.35L342.29-360.35Q342.29-327.15 317.38-327.15L317.38-327.15Q307.62-327.15 300.29-333.01L300.29-333.01Q296.39-335.94 293.46-331.05L293.46-331.05Q281.25-312.99 259.28-312.99L259.28-312.99Q250.49-312.99 244.63-317.38L244.63-317.38Q224.61-329.10 195.31-315.92L195.31-315.92Q182.62-309.08 151.37-282.23L151.37-282.23Q133.30-266.11 116.70-250.98L116.70-250.98Q87.40-229.00 48.34-213.38L48.34-213.38Q16.60-200.20 5.37-200.20L5.37-200.20Q2.44-200.20 2.44-202.15L2.44-202.15Q5.37-205.08 13.67-208.01L13.67-208.01Q28.32-213.38 54.69-226.07L54.69-226.07Q102.54-252.93 138.67-290.04L138.67-290.04Q168.46-323.24 202.64-340.33L202.64-340.33Q226.56-353.03 243.65-342.29L243.65-342.29Q251.46-335.94 260.25-335.94L260.25-335.94Q285.64-335.94 294.43-360.35L294.43-360.35Q299.32-375 306.64-375L306.64-375Q308.59-375 307.62-370.12L307.62-370.12Q304.69-359.38 306.64-356.93L306.64-356.93Q313.48-348.14 326.66-352.05L326.66-352.05Q335.45-354.00 328.61-360.35L328.61-360.35Q323.24-363.28 326.66-369.14L326.66-369.14Q332.52-383.30 334.47-383.30L334.47-383.30Q342.29-383.30 342.29-360.35Z" id="f3_895"/><path d="M109.38-132.81L109.38-132.81Q109.38-104.98 99.61-65.92L99.61-65.92Q83.50-4.88 26.37-4.88L26.37-4.88Q19.53-4.88 19.53-17.58L19.53-17.58Q19.53-52.73 38.57-52.73L38.57-52.73Q50.78-52.73 67.63-61.77Q84.47-70.80 84.47-76.66L84.47-76.66Q84.47-129.88 39.55-384.77L39.55-384.77Q29.79-444.82 12.70-564.94L12.70-564.94Q2.44-571.78 4.39-575.68L4.39-575.68Q8.79-586.91 16.60-607.91L16.60-607.91Q23.44-625.98 25.39-625.98L25.39-625.98Q29.79-625.98 54.69-568.85L54.69-568.85Q80.57-510.74 80.57-504.88L80.57-504.88Q80.57-503.91 79.59-502.93L79.59-502.93Q76.66-500.98 64.45-512.70L64.45-512.70Q60.55-516.60 47.36-529.79L47.36-529.79Q67.38-415.04 88.38-299.80L88.38-299.80Q109.38-174.80 109.38-132.81Z" id="f3_1042"/><path d="M15.63-127.93L26.86-130.86Q20.51-98.63 28.32-82.52L28.32-82.52Q41.99-53.71 84.96-53.71L84.96-53.71Q91.80-53.71 91.80-40.04L91.80-40.04Q91.80-4.88 73.24-4.88L73.24-4.88Q25.39-4.88 8.30-43.46L8.30-43.46Q2.44-57.13 2.44-73.24L2.44-73.24Q2.44-96.68 15.63-127.93L15.63-127.93Z" id="f3_1092"/><path d="M191.89-264.65L191.89-264.65Q197.27-264.65 179.69-215.33L179.69-215.33Q173.83-200.20 135.74-150.39L135.74-150.39Q176.27-116.21 176.27-83.50L176.27-83.50Q176.27-36.13 158.20-13.67L158.20-13.67Q146.00 0.98 121.34 14.65Q96.68 28.32 82.52 28.32L82.52 28.32Q49.32 28.32 49.32-22.95L49.32-22.95Q49.32-75.20 94.24-134.77L94.24-134.77Q86.43-141.11 45.41-200.20L45.41-200.20Q39.55-202.15 39.06-206.05L39.06-206.05Q38.09-212.40 39.06-231.45L39.06-231.45Q40.04-251.95 42.97-253.91L42.97-253.91Q44.43-254.88 63.96-240.72L63.96-240.72Q109.86-208.01 106.93-204.10L106.93-204.10Q104.00-199.22 82.52-205.08L82.52-205.08Q90.82-190.92 118.65-165.04L118.65-165.04Q151.37-204.59 174.80-239.26L174.80-239.26Q191.89-264.65 191.89-264.65ZM160.64-62.50L160.64-62.50Q160.64-74.71 109.86-119.63L109.86-119.63Q67.87-69.82 67.87-47.85L67.87-47.85Q67.87-24.41 89.36-24.41L89.36-24.41Q109.86-24.41 136.72-41.02L136.72-41.02Q160.64-56.15 160.64-62.50Z" id="f5_207"/><path d="M131-609L131-609Q134-606 131-594L131-594Q129-582 125-582L125-582Q125-582 119-590Q113-598 106-598L106-598Q92-598 86-545.50Q80-493 75-494L75-494Q69-494 62-517L62-517Q54-546 35-562L35-562Q34-560 32-558L32-558Q29-557 15.50-564.50Q2-572 1-578L1-578Q-2-605 11-605L11-605Q35-606 62-554L62-554Q66-543 73-529L73-529Q76-554 81-579L81-579Q89-625 106-624L106-624Q119-624 131-609Z" id="f4_2"/><path d="M47-536L47-536Q50-536 48-522L48-522Q46-509 43-504L43-504Q37-495 28-494L28-494Q20-493 16-499L16-499Q4-516 6-547L6-547Q8-565 21-618L21-618Q23-625 26-629L26-629Q33-640 33-632L33-632Q33-629 30-620L30-620Q17-570 17-545L17-545Q17-527 22-521L22-521Q25-517 29-517L29-517Q39-517 43-531L43-531Q44-536 47-536Z" id="f4_3"/><path d="M31-174L82-144L57-100L6-130L31-174Z" id="f4_59"/><path d="M57-168L98-144L73-100L23-129L47-173L6-197L30-241L81-211L57-168Z" id="f4_63"/><path d="M252-612L252-612Q254-609 249.50-599.50Q245-590 243-589L243-589Q181-566 119-543L119-543Q40-513 5-493L5-493Q3-497 5-508L5-508Q7-518 10-520L10-520Q121-570 252-612Z" id="f4_83"/><path d="M55-640L55-640Q84-680 111-669L111-669Q126-663 129-649L129-649Q135-619 125-589L125-589Q117-569 95-536L95-536Q70-493 27-445L27-445Q11-427 6-430L6-430Q6-431 6-434L6-434Q10-441 19-453L19-453Q39-476 84-544L84-544Q106-584 103-610L103-610Q102-628 88-633L88-633Q79-637 71-631L71-631Q66-629 56-620L56-620Q48-614 47-615L47-615Q38-617 55-640Z" id="f4_114"/><path d="M154-624L154-624L159-624Q167-622 173-618L173-618Q182-611 183-605L183-605L183-602Q183-599 182.50-596.50Q182-594 181-590L181-590Q180-588 179-585Q178-582 176-582L176-582Q174-582 172-587L172-587Q170-590 165.50-594.50Q161-599 155-598L155-598Q150-597 147.50-591Q145-585 143-580L143-580Q139-567 138-554.50Q137-542 135-528L135-528Q134-522 133-515Q132-508 130-503L130-503Q127-494 121.50-486.50Q116-479 109-473L109-473Q102-466 94-461Q86-456 78-451L78-451Q61-440 43.50-433.50Q26-427 4-420L4-420Q27-440 55-455.50Q83-471 106-491L106-491Q109-494 112.50-496.50Q116-499 118-503L118-503Q114-511 112-519.50Q110-528 106-536L106-536Q98-551 86-562L86-562Q84-560 84-559Q84-558 82-558L82-558Q80-558 77-559Q74-560 72-561L72-561Q68-564 64-565L64-565Q61-567 57-570Q53-573 52-577L52-577Q50-581 50.50-585.50Q51-590 51-593L51-593Q54-608 70-604L70-604Q81-601 89-591Q97-581 102-572L102-572Q105-567 108.50-562Q112-557 114-551L114-551Q116-546 118-540Q120-534 124-529L124-529Q126-542 128-555.50Q130-569 132-583L132-583Q134-589 135.50-595.50Q137-602 139-607L139-607Q141-612 144.50-617Q148-622 154-624Z" id="f4_115"/></defs></svg>
