<?xml version="1.0" encoding="iso-8859-1"?>
<!-- Generator: Adobe Illustrator 18.0.0, SVG Export Plug-In . SVG Version: 6.00 Build 0)  -->
<!DOCTYPE svg PUBLIC "-//W3C//DTD SVG 1.1//EN" "http://www.w3.org/Graphics/SVG/1.1/DTD/svg11.dtd">
<svg version="1.1" id="Capa_1" xmlns="http://www.w3.org/2000/svg" xmlns:xlink="http://www.w3.org/1999/xlink" x="0px" y="0px"
	 viewBox="0 0 371.023 371.023" style="enable-background:new 0 0 371.023 371.023;" xml:space="preserve">
<path d="M188.52,0.949L185.512,0l-3.009,0.949c-4.4,1.388-107.787,34.867-107.787,110.332v259.741h221.592V111.282
	C296.307,35.816,192.921,2.337,188.52,0.949z M273.013,91.838c0.723,2.092,1.331,4.232,1.826,6.416h-1.826V91.838z M268.013,86.988
	v11.266h-14.068l-9.948-9.947l12.668-12.668L268.013,86.988z M241.512,145.487l11.616,11.616l-12.668,12.668l-9.949-9.948v-14.126
	C234.23,145.609,237.898,145.538,241.512,145.487z M230.512,140.696v-14.014l9.947-9.946l12.669,12.669l-11.071,11.071
	C238.265,140.528,234.414,140.605,230.512,140.696z M249.374,185.754l-21.362,21.36l-21.362-21.36l21.362-21.36L249.374,185.754z
	 M241.512,226.022c-3.614-0.051-7.282-0.124-11-0.211v-14.125l9.948-9.947l12.667,12.667L241.512,226.022z M242.056,231.032
	l11.072,11.072l-12.669,12.669l-9.948-9.947v-14.015C234.415,230.904,238.266,230.98,242.056,231.032z M158.994,283.202l9.949-9.948
	h14.068v11.266l-11.35,11.349L158.994,283.202z M168.127,299.405l-11.348,11.349h-11.267v-14.071l9.947-9.946L168.127,299.405z
	 M168.943,268.254l-9.948-9.947l12.668-12.668l11.349,11.349v11.266H168.943z M175.198,214.406l10.312-10.312l10.313,10.314
	l-10.311,10.312L175.198,214.406z M181.976,228.255l-10.313,10.314l-10.314-10.314l10.313-10.313L181.976,228.255z M175.198,157.103
	l10.314-10.314l10.311,10.312l-10.313,10.314L175.198,157.103z M199.358,217.943l10.312,10.311l-10.312,10.313l-10.311-10.312
	L199.358,217.943z M188.012,199.524v-11.27h14.066l9.95,9.949l-12.669,12.669L188.012,199.524z M188.012,183.253v-11.269
	l11.348-11.348l12.669,12.669l-9.95,9.948H188.012z M202.894,157.101l11.347-11.348h11.27v14.07l-9.948,9.947L202.894,157.101z
	 M199.358,153.566l-10.311-10.312l10.311-10.312l10.312,10.312L199.358,153.566z M185.512,139.719l-10.314-10.314l10.312-10.311
	l10.313,10.313L185.512,139.719z M181.976,143.254l-10.313,10.313l-10.313-10.314l10.313-10.314L181.976,143.254z M183.012,171.988
	v11.265h-14.068l-9.948-9.948l12.667-12.667L183.012,171.988z M183.012,188.254v11.266l-11.35,11.35l-12.668-12.668l9.949-9.949
	H183.012z M168.127,214.406l-11.348,11.349h-11.267v-14.069l9.948-9.947L168.127,214.406z M156.779,230.754l11.349,11.35
	l-12.668,12.669l-9.948-9.946v-14.072H156.779z M175.199,242.104l10.313-10.314l10.311,10.312l-10.313,10.313L175.199,242.104z
	 M188.012,273.254h14.067l9.949,9.947l-12.669,12.669l-11.347-11.347V273.254z M188.012,268.254v-11.27l11.347-11.347l12.67,12.669
	l-9.95,9.948H188.012z M202.894,242.102l11.348-11.348h11.27v14.072l-9.947,9.946L202.894,242.102z M214.242,225.754l-11.347-11.347
	l12.669-12.669l9.948,9.948v14.069H214.242z M225.512,140.753h-11.27l-11.348-11.347l12.669-12.669l9.948,9.946V140.753z
	 M199.359,125.871l-11.347-11.347v-11.27h14.067l9.949,9.947L199.359,125.871z M188.012,98.254v-11.27l11.347-11.347l12.67,12.669
	l-9.95,9.948H188.012z M202.894,72.102l11.348-11.348h11.27v14.072l-9.947,9.946L202.894,72.102z M199.358,68.567l-10.311-10.312
	l10.311-10.312l10.312,10.311L199.358,68.567z M195.823,72.102L185.51,82.415l-10.311-10.312l10.313-10.313L195.823,72.102z
	 M171.663,68.568L161.35,58.254l10.313-10.313l10.313,10.314L171.663,68.568z M183.012,86.988v11.266h-14.068l-9.948-9.947
	l12.668-12.668L183.012,86.988z M183.012,103.254v11.266l-11.35,11.349l-12.668-12.667l9.949-9.948H183.012z M168.127,129.405
	l-11.348,11.349h-11.267v-14.071l9.947-9.946L168.127,129.405z M156.778,145.753l11.35,11.35l-12.668,12.668l-9.948-9.948v-14.07
	H156.778z M164.373,185.754l-21.361,21.36l-21.362-21.36l21.362-21.36L164.373,185.754z M129.523,226.036l-11.481-11.481
	c4.27-4.105,8.515-8.34,12.585-12.753l9.885,9.884v14.13C136.902,225.908,133.24,225.985,129.523,226.036z M140.512,230.817v14.009
	l-9.883,9.881c-4.071-4.413-8.316-8.648-12.587-12.753l10.913-10.913C132.864,230.991,136.719,230.914,140.512,230.817z
	 M130.627,169.706c-4.07-4.413-8.315-8.648-12.586-12.753l11.481-11.48c3.718,0.05,7.38,0.127,10.989,0.219v14.131L130.627,169.706z
	 M140.512,140.691c-3.793-0.097-7.648-0.173-11.557-0.224l-10.914-10.913c4.271-4.105,8.515-8.34,12.585-12.754l9.885,9.882V140.691
	z M124.67,143.253l-10.312,10.313l-10.312-10.312l10.312-10.312L124.67,143.253z M114.509,160.486
	c4.284,4.117,8.549,8.346,12.596,12.743l-10.027,10.025H103.01v-11.269L114.509,160.486z M117.078,188.254l10.026,10.025
	c-4.047,4.396-8.312,8.626-12.596,12.743l-11.498-11.498v-11.27H117.078z M124.67,228.254l-10.313,10.312l-10.311-10.312
	l10.312-10.312L124.67,228.254z M114.509,245.486c4.284,4.117,8.549,8.347,12.596,12.744l-10.026,10.024H103.01v-11.27
	L114.509,245.486z M117.079,273.254l10.025,10.023c-4.046,4.397-8.312,8.628-12.595,12.744l-11.499-11.498v-11.27H117.079z
	 M124.67,313.253l-10.312,10.313l-10.312-10.312l10.312-10.312L124.67,313.253z M129.522,315.473
	c3.718,0.05,7.38,0.127,10.989,0.219v14.131l-9.885,9.883c-4.07-4.413-8.315-8.647-12.586-12.752L129.522,315.473z M128.955,310.467
	l-10.914-10.913c4.271-4.105,8.515-8.34,12.585-12.754l9.885,9.882v14.008C136.719,310.594,132.864,310.518,128.955,310.467z
	 M121.65,270.754l21.362-21.357l21.36,21.357l-21.36,21.357L121.65,270.754z M145.512,315.753h11.267l11.35,11.35l-12.668,12.668
	l-9.948-9.948V315.753z M161.35,313.253l10.313-10.313l10.313,10.314l-10.313,10.314L161.35,313.253z M175.198,299.405
	l10.312-10.311l10.313,10.313l-10.311,10.312L175.198,299.405z M199.358,302.942l10.312,10.311l-10.312,10.313l-10.311-10.312
	L199.358,302.942z M214.242,315.753h11.27v14.07l-9.948,9.947l-12.669-12.669L214.242,315.753z M214.242,310.753l-11.348-11.347
	l12.669-12.67l9.948,9.946v14.071H214.242z M206.65,270.754l21.362-21.357l21.362,21.357l-21.362,21.357L206.65,270.754z
	 M240.459,286.737l12.669,12.669l-11.071,11.071c-3.791,0.051-7.642,0.128-11.545,0.22v-14.014L240.459,286.737z M230.512,315.697
	c3.718-0.088,7.386-0.16,11.001-0.211l11.616,11.616l-12.668,12.668l-9.949-9.948V315.697z M246.351,313.253l10.313-10.313
	l10.313,10.313l-10.313,10.313L246.351,313.253z M256.663,295.87l-12.669-12.668l9.95-9.948h14.068v11.266L256.663,295.87z
	 M253.944,268.254l-9.949-9.947l12.668-12.669l11.349,11.35v11.266H253.944z M246.351,228.254l10.312-10.313l10.313,10.313
	l-10.313,10.313L246.351,228.254z M256.663,210.871l-12.668-12.668l9.95-9.949h14.068v11.266L256.663,210.871z M253.945,183.253
	l-9.949-9.947l12.667-12.668l11.349,11.35v11.265H253.945z M246.351,143.253l10.313-10.313l10.313,10.313l-10.313,10.313
	L246.351,143.253z M256.663,125.87l-12.669-12.668l9.95-9.948h14.068v11.266L256.663,125.87z M261.391,70.911
	c1.934,2.487,3.727,5.067,5.353,7.737l-6.545-6.545L261.391,70.911z M247.919,56.686c3.642,3.233,7.105,6.682,10.282,10.345
	l-1.537,1.537l-10.313-10.314L247.919,56.686z M230.512,43.459c4.605,3.028,9.194,6.351,13.593,9.969l-1.778,1.779
	c-3.973,0.025-7.893,0.139-11.814,0.378V43.459z M230.512,60.597c3.555-0.224,7.119-0.342,10.729-0.381l11.887,11.888L240.46,84.772
	l-9.948-9.946V60.597z M249.373,100.754l-21.362,21.357l-21.362-21.357l21.362-21.357L249.373,100.754z M222.02,38.195l3.491,3.491
	v14.069h-11.27l-11.348-11.347l10.824-10.824C216.421,35.007,219.203,36.546,222.02,38.195z M188.012,21.988
	c4.799,1.811,12.334,4.879,21.028,9.203l-9.681,9.681l-11.347-11.347V21.988z M195.823,44.408L185.512,54.72l-10.314-10.314
	l10.312-10.311L195.823,44.408z M183.012,21.987v7.534l-11.35,11.349l-9.679-9.679C170.678,26.866,178.214,23.798,183.012,21.987z
	 M145.512,41.686l3.49-3.49c2.817-1.648,5.6-3.188,8.303-4.612l10.822,10.822l-11.348,11.349h-11.267V41.686z M145.512,60.754
	h11.267l11.349,11.35l-12.668,12.669l-9.948-9.946V60.754z M164.372,100.754l-21.36,21.357l-21.362-21.357l21.362-21.357
	L164.372,100.754z M130.644,84.691c-4.057-4.396-8.319-8.624-12.6-12.74l11.202-11.202c2.48,0.053,4.973,0.09,7.468,0.09
	c1.267,0,2.531-0.031,3.797-0.051v14.038L130.644,84.691z M140.512,43.459v12.332c-3.752,0.061-7.523,0.032-11.282-0.049
	l-2.312-2.313C131.316,49.811,135.906,46.488,140.512,43.459z M123.103,56.688l1.567,1.567l-10.313,10.312l-1.535-1.535
	C115.999,63.368,119.462,59.92,123.103,56.688z M109.632,70.911l1.191,1.191l-6.537,6.537
	C105.91,75.971,107.701,73.395,109.632,70.911z M103.01,86.984l11.498-11.497c4.295,4.129,8.564,8.363,12.597,12.743l-10.026,10.024
	H103.01V86.984z M103.01,103.254h14.068l10.025,10.023c-4.046,4.397-8.312,8.627-12.595,12.744l-11.499-11.498V103.254z
	 M98.01,91.838v6.416h-1.826C96.679,96.071,97.287,93.93,98.01,91.838z M94.716,111.282c0-2.739,0.196-5.413,0.557-8.027h2.738
	v11.266l-3.295,3.295V111.282z M94.716,124.887l5.793-5.793l10.314,10.313l-10.312,10.312l-5.795-5.796V124.887z M94.716,140.994
	l2.26,2.26l-2.26,2.26V140.994z M94.716,152.585l5.795-5.795l10.312,10.312l-10.314,10.314l-5.793-5.794V152.585z M94.716,168.693
	l3.295,3.295v11.266h-3.295V168.693z M94.716,188.254h3.295v11.266l-3.295,3.295V188.254z M94.716,209.887l5.793-5.793
	l10.314,10.314l-10.312,10.312l-5.795-5.795V209.887z M94.716,225.995l2.26,2.26l-2.26,2.26V225.995z M94.716,237.586l5.795-5.796
	l10.312,10.312l-10.314,10.313l-5.793-5.793V237.586z M94.716,253.693l3.295,3.295v11.266h-3.295V253.693z M94.716,273.254h3.295
	v11.266l-3.295,3.295V273.254z M94.716,294.887l5.793-5.793l10.314,10.313l-10.312,10.312l-5.795-5.796V294.887z M94.716,310.994
	l2.26,2.26l-2.26,2.26V310.994z M98.01,351.023h-3.295v-12.33l3.295,3.295V351.023z M94.716,331.621v-9.037l5.795-5.795
	l10.312,10.312l-10.314,10.314L94.716,331.621z M103.01,351.023v-9.039l11.499-11.499c4.284,4.117,8.549,8.346,12.596,12.743
	l-7.795,7.795H103.01z M126.381,351.023l16.631-16.629l16.63,16.629H126.381z M183.012,351.023h-16.299l-7.718-7.717l12.667-12.667
	l11.35,11.35V351.023z M175.198,327.103l10.314-10.314l10.311,10.312l-10.313,10.314L175.198,327.103z M188.012,351.023v-9.039
	l11.348-11.348l12.669,12.669l-7.719,7.718H188.012z M211.381,351.023l16.631-16.629l16.631,16.629H211.381z M268.013,351.023
	h-16.299l-7.718-7.717l12.667-12.668l11.349,11.35V351.023z M276.307,351.023h-3.295v-9.039l3.295-3.295V351.023z M276.307,331.618
	l-5.797,5.797l-10.312-10.313l10.313-10.313l5.796,5.796V331.618z M276.307,315.515l-2.261-2.261l2.261-2.261V315.515z
	 M276.307,303.922l-5.796,5.796l-10.313-10.313l10.311-10.312l5.797,5.797V303.922z M276.307,287.819l-3.295-3.295v-11.27h3.295
	V287.819z M276.307,268.254h-3.295v-11.27l3.295-3.295V268.254z M276.307,246.618l-5.797,5.797l-10.311-10.312l10.313-10.313
	l5.796,5.796V246.618z M276.307,230.516l-2.261-2.261l2.261-2.261V230.516z M276.307,218.923l-5.796,5.796l-10.313-10.313
	l10.312-10.313l5.797,5.797V218.923z M276.307,202.819l-3.295-3.295v-11.27h3.295V202.819z M276.307,183.253h-3.295v-11.269
	l3.295-3.295V183.253z M276.307,161.618l-5.797,5.797l-10.312-10.313l10.313-10.313l5.796,5.796V161.618z M276.307,145.515
	l-2.261-2.261l2.261-2.261V145.515z M276.307,133.922l-5.796,5.796l-10.313-10.313l10.311-10.312l5.797,5.797V133.922z
	 M276.307,117.819l-3.295-3.295v-11.27h2.738c0.36,2.615,0.557,5.289,0.557,8.027V117.819z"/>
<g>
</g>
<g>
</g>
<g>
</g>
<g>
</g>
<g>
</g>
<g>
</g>
<g>
</g>
<g>
</g>
<g>
</g>
<g>
</g>
<g>
</g>
<g>
</g>
<g>
</g>
<g>
</g>
<g>
</g>
</svg>
